HIERARCHY
ROOT Hips
{
	OFFSET -0.001795 -0.223333 0.028219
	CHANNELS 6 Xposition Yposition Zposition Zrotation Yrotation Xrotation 
	JOINT LeftUpLeg
	{
		OFFSET 0.069520 -0.091406 -0.006815
		CHANNELS 3 Zrotation Yrotation Xrotation
		JOINT LeftLeg
		{
			OFFSET 0.034277 -0.375199 -0.004496
			CHANNELS 3 Zrotation Yrotation Xrotation
			JOINT LeftFoot
			{
				OFFSET -0.013596 -0.397961 -0.043693
				CHANNELS 3 Zrotation Yrotation Xrotation
				JOINT LeftToe
				{
					OFFSET 0.026358 -0.055791 0.119288
					CHANNELS 3 Zrotation Yrotation Xrotation
					End Site
					{
						OFFSET 0.000000 0.000000 0.000000
					}
				}
			}
		}
	}
	JOINT RightUpLeg
	{
		OFFSET -0.067670 -0.090522 -0.004320
		CHANNELS 3 Zrotation Yrotation Xrotation
		JOINT RightLeg
		{
			OFFSET -0.038290 -0.382569 -0.008850
			CHANNELS 3 Zrotation Yrotation Xrotation
			JOINT RightFoot
			{
				OFFSET 0.015774 -0.398415 -0.042312
				CHANNELS 3 Zrotation Yrotation Xrotation
				JOINT RightToe
				{
					OFFSET -0.025372 -0.048144 0.123348
					CHANNELS 3 Zrotation Yrotation Xrotation
					End Site
					{
						OFFSET 0.000000 0.000000 0.000000
					}
				}
			}
		}
	}
	JOINT Spine
	{
		OFFSET -0.002533 0.108963 -0.026696
		CHANNELS 3 Zrotation Yrotation Xrotation
		JOINT Spine1
		{
			OFFSET 0.005487 0.135180 0.001092
			CHANNELS 3 Zrotation Yrotation Xrotation
			JOINT Spine2
			{
				OFFSET 0.001457 0.052922 0.025425
				CHANNELS 3 Zrotation Yrotation Xrotation
				JOINT Neck
				{
					OFFSET -0.002778 0.213870 -0.042857
					CHANNELS 3 Zrotation Yrotation Xrotation
					JOINT Head
					{
						OFFSET 0.005152 0.064970 0.051349
						CHANNELS 3 Zrotation Yrotation Xrotation
						End Site
						{
							OFFSET 0.000000 0.000000 0.000000
						}
					}
				}
				JOINT LeftShoulder
				{
					OFFSET 0.078845 0.121749 -0.034090
					CHANNELS 3 Zrotation Yrotation Xrotation
					JOINT LeftArm
					{
						OFFSET 0.090977 0.030469 -0.008868
						CHANNELS 3 Zrotation Yrotation Xrotation
						JOINT LeftForeArm
						{
							OFFSET 0.259612 -0.012772 -0.027456
							CHANNELS 3 Zrotation Yrotation Xrotation
							JOINT LeftHand
							{
								OFFSET 0.249234 0.008986 -0.001171
								CHANNELS 3 Zrotation Yrotation Xrotation
								End Site
								{
									OFFSET 0.000000 0.000000 0.000000
								}
							}
						}
					}
				}
				JOINT RightShoulder
				{
					OFFSET -0.081759 0.118833 -0.038615
					CHANNELS 3 Zrotation Yrotation Xrotation
					JOINT RightArm
					{
						OFFSET -0.096012 0.032551 -0.009143
						CHANNELS 3 Zrotation Yrotation Xrotation
						JOINT RightForeArm
						{
							OFFSET -0.253742 -0.013329 -0.021401
							CHANNELS 3 Zrotation Yrotation Xrotation
							JOINT RightHand
							{
								OFFSET -0.255298 0.007772 -0.005559
								CHANNELS 3 Zrotation Yrotation Xrotation
								End Site
								{
									OFFSET 0.000000 0.000000 0.000000
								}
							}
						}
					}
				}
			}
		}
	}
}
MOTION
Frames: 16
Frame Time: 0.050000
0.016541 0.940355 -0.052204 -4.163586 10.679228 10.814738 12.523498 -0.693738 -15.904517 -6.513690 0.488215 -1.197828 10.153174 21.618032 18.446055 0.000000 0.000000 0.000000 -1.544031 1.694062 -24.433716 5.624499 -0.863867 6.574476 -3.739920 -11.211999 17.505837 0.000000 0.000000 0.000000 -4.974064 -0.963521 33.567565 6.746347 -0.972609 -21.175619 0.846678 -1.505065 25.168821 -2.310970 3.433448 -30.133015 0.000000 0.000000 0.000000 -11.013660 -13.160845 4.983248 -38.441208 -48.891470 8.934773 16.077052 -52.753818 -5.233698 0.000000 0.000000 0.000000 3.017148 21.817744 8.616587 42.366347 52.511866 13.778014 -25.492159 62.799266 -10.695250 0.000000 0.000000 0.000000 
0.015308 0.940234 -0.053350 -4.260771 10.648886 10.967803 12.764632 -0.683477 -16.097307 -6.598533 0.490959 -1.326104 10.188386 21.668425 18.600051 0.000000 0.000000 0.000000 -1.357795 1.744006 -24.683489 5.571320 -0.850253 6.519933 -3.721986 -11.198771 17.595653 0.000000 0.000000 0.000000 -5.092890 -0.921890 33.604893 6.852570 -1.010496 -21.029574 0.889316 -1.362894 24.981017 -2.151047 3.363808 -29.985581 0.000000 0.000000 0.000000 -11.001926 -13.326565 5.041220 -37.872671 -48.892754 8.731058 15.712497 -52.239795 -5.028685 0.000000 0.000000 0.000000 2.914597 22.108718 8.725837 42.159341 53.028980 13.956662 -23.849989 61.527319 -9.490603 0.000000 0.000000 0.000000 
0.014294 0.940255 -0.054420 -4.404894 10.511566 11.118927 13.042846 -0.664287 -16.151347 -6.684866 0.490779 -1.646888 10.272449 21.769734 18.830367 0.000000 0.000000 0.000000 -1.181184 1.797849 -24.951711 5.609458 -0.852634 6.482879 -3.643819 -11.106505 17.740060 0.000000 0.000000 0.000000 -5.240122 -0.851958 33.547841 6.831086 -1.008609 -20.991751 1.097642 -1.163791 25.141790 -1.999401 3.303105 -29.801167 0.000000 0.000000 0.000000 -10.862365 -13.519392 5.107695 -37.278870 -49.106017 8.555956 14.995429 -51.567718 -4.642963 0.000000 0.000000 0.000000 2.675207 22.364274 8.786680 41.652702 53.550946 13.974943 -22.995790 60.225994 -8.779125 0.000000 0.000000 0.000000 
0.013584 0.940291 -0.055295 -4.482129 10.347282 11.304598 13.078683 -0.658658 -16.278967 -6.507916 0.478192 -1.835422 10.361115 21.877568 19.020700 0.000000 0.000000 0.000000 -0.965332 1.861033 -25.209861 5.428860 -0.812226 6.425488 -3.554978 -10.995427 17.836683 0.000000 0.000000 0.000000 -5.333213 -0.785875 33.335023 6.986861 -1.072286 -20.693513 1.118903 -0.982128 24.955544 -1.862172 3.236167 -29.384673 0.000000 0.000000 0.000000 -11.077146 -13.607942 5.138534 -36.712147 -48.897017 8.279377 14.027518 -51.233293 -4.176183 0.000000 0.000000 0.000000 3.009754 22.609180 8.973655 40.892647 53.546216 13.623514 -21.465798 59.735166 -7.861537 0.000000 0.000000 0.000000 
0.013268 0.940675 -0.055954 -4.662956 10.202113 11.419876 13.285075 -0.641489 -16.333723 -6.477162 0.474518 -2.024492 10.436846 21.965514 19.255067 0.000000 0.000000 0.000000 -0.759984 1.915661 -25.319814 5.423752 -0.802351 6.235542 -3.450713 -10.872444 18.075493 0.000000 0.000000 0.000000 -5.316694 -0.769759 33.259950 6.858982 -1.039513 -20.701757 1.358174 -0.887602 24.987485 -1.649368 3.120727 -29.128196 0.000000 0.000000 0.000000 -11.115010 -13.747360 5.205238 -36.782377 -48.619146 8.204020 12.890650 -50.819205 -3.607502 0.000000 0.000000 0.000000 3.202071 22.706380 9.059594 40.769408 53.434753 13.506431 -19.442648 59.332042 -6.693739 0.000000 0.000000 0.000000 
0.013308 0.940912 -0.056432 -4.822616 9.907742 11.590658 13.392199 -0.623220 -16.411738 -6.351325 0.468550 -2.171077 10.605794 22.157575 19.466018 0.000000 0.000000 0.000000 -0.549985 1.975642 -25.357010 5.355626 -0.773422 5.838362 -3.277377 -10.653542 18.264902 0.000000 0.000000 0.000000 -5.288365 -0.717329 32.812127 6.897976 -1.070560 -20.453706 1.552606 -0.776378 25.053756 -1.649047 3.103294 -28.711583 0.000000 0.000000 0.000000 -11.550768 -13.763591 5.236121 -36.525855 -48.300363 7.996486 11.572215 -50.275746 -2.953216 0.000000 0.000000 0.000000 3.580865 22.845362 9.200409 39.866414 52.917745 12.826361 -17.559218 59.399693 -5.690685 0.000000 0.000000 0.000000 
0.013538 0.941019 -0.056864 -4.876404 9.783956 11.728421 13.422598 -0.617720 -16.521126 -6.318151 0.467019 -2.244278 10.681644 22.246068 19.575401 0.000000 0.000000 0.000000 -0.462263 1.999415 -25.338158 5.271448 -0.746743 5.469062 -3.194794 -10.551176 18.388630 0.000000 0.000000 0.000000 -5.200479 -0.720447 32.637777 6.916732 -1.078521 -20.422100 1.713696 -0.657571 25.111663 -1.366797 2.951338 -28.315290 0.000000 0.000000 0.000000 -11.676509 -13.736171 5.220178 -36.550598 -47.694461 7.792939 10.342531 -50.164373 -2.391845 0.000000 0.000000 0.000000 3.778133 22.711167 9.198169 39.559424 52.367189 12.443943 -15.676551 59.719596 -4.679265 0.000000 0.000000 0.000000 
0.013807 0.941095 -0.057331 -5.013479 9.679468 11.803963 13.613371 -0.601898 -16.533894 -6.414174 0.470405 -2.404607 10.758853 22.332325 19.668389 0.000000 0.000000 0.000000 -0.405933 2.021216 -25.405716 5.387426 -0.761921 5.332916 -3.125652 -10.472653 18.531255 0.000000 0.000000 0.000000 -5.105621 -0.725572 32.370018 6.945577 -1.097908 -20.302220 1.809329 -0.618608 25.239538 -1.203737 2.873054 -28.531351 0.000000 0.000000 0.000000 -11.710834 -13.588251 5.156409 -36.946365 -47.388631 7.813354 8.965083 -49.937445 -1.739837 0.000000 0.000000 0.000000 3.733873 22.781544 9.215754 38.897432 51.854690 11.922534 -14.548616 59.902598 -4.081455 0.000000 0.000000 0.000000 
0.014045 0.941134 -0.057789 -5.020264 9.589148 11.850723 13.605809 -0.598559 -16.508716 -6.418957 0.468841 -2.548321 10.804853 22.381879 19.741262 0.000000 0.000000 0.000000 -0.343075 2.032156 -25.301194 5.265210 -0.731644 5.007824 -3.065073 -10.393620 18.598979 0.000000 0.000000 0.000000 -4.969068 -0.748828 32.178556 6.903059 -1.081614 -20.384368 1.858898 -0.468226 25.324391 -1.120499 2.858473 -28.803483 0.000000 0.000000 0.000000 -11.893159 -13.710897 5.198738 -36.704062 -46.890414 7.554207 7.776486 -50.176584 -1.225745 0.000000 0.000000 0.000000 4.040098 22.823287 9.313023 37.959614 51.110631 11.206111 -13.296471 60.130521 -3.413873 0.000000 0.000000 0.000000 
0.014266 0.941382 -0.058231 -5.062320 9.616223 11.891923 13.658978 -0.598030 -16.470302 -6.455423 0.465005 -2.768492 10.777192 22.348226 19.849265 0.000000 0.000000 0.000000 -0.419182 2.018976 -25.329768 5.431093 -0.758577 4.911188 -3.059120 -10.400019 18.762613 0.000000 0.000000 0.000000 -4.849277 -0.800796 32.331713 6.820615 -1.036185 -20.679677 1.992371 -0.285087 25.219263 -0.779552 2.715159 -28.963755 0.000000 0.000000 0.000000 -12.283718 -13.781441 5.205417 -36.578481 -46.610964 7.433291 6.910697 -50.279074 -0.851121 0.000000 0.000000 0.000000 3.973701 22.869554 9.339525 37.011732 50.588470 10.636003 -12.677512 59.587816 -3.052296 0.000000 0.000000 0.000000 
0.014467 0.941837 -0.058556 -5.088532 9.514205 11.771011 13.677813 -0.590336 -16.226917 -6.484332 0.463375 -2.960412 10.791029 22.349749 19.999901 0.000000 0.000000 0.000000 -0.308015 2.029152 -25.039276 5.285585 -0.725531 4.594574 -2.975050 -10.290891 18.898699 0.000000 0.000000 0.000000 -4.730448 -0.833270 32.363797 6.719300 -1.001338 -20.804277 2.090552 -0.188681 25.221469 -0.819983 2.723846 -28.487360 0.000000 0.000000 0.000000 -13.032672 -14.010057 5.326528 -36.010349 -46.466418 7.208923 6.487729 -50.319464 -0.667032 0.000000 0.000000 0.000000 4.316707 23.139665 9.532606 35.301242 50.126616 9.730660 -11.912110 58.853798 -2.661191 0.000000 0.000000 0.000000 
0.014626 0.942202 -0.058813 -5.148436 9.406670 11.666016 13.713108 -0.582820 -15.910785 -6.469047 0.455454 -3.308324 10.811850 22.356604 20.151252 0.000000 0.000000 0.000000 -0.265068 2.025360 -24.730204 5.328726 -0.723377 4.199766 -2.887971 -10.182535 19.050931 0.000000 0.000000 0.000000 -4.635747 -0.856013 32.382392 6.687146 -1.004147 -20.705001 2.185800 0.130556 24.922558 -0.723353 2.692122 -27.980969 0.000000 0.000000 0.000000 -13.473018 -14.115828 5.328002 -35.890177 -46.234441 7.129241 5.958645 -50.507840 -0.460054 0.000000 0.000000 0.000000 4.297956 23.122992 9.547860 34.941586 49.891551 9.555405 -11.880568 58.030349 -2.609506 0.000000 0.000000 0.000000 
0.014768 0.942575 -0.059020 -5.084754 9.495898 11.538221 13.577919 -0.594608 -15.633510 -6.393116 0.442514 -3.601224 10.703466 22.223951 20.237371 0.000000 0.000000 0.000000 -0.331706 1.987648 -24.376512 5.317612 -0.716567 3.833081 -2.904432 -10.203252 19.167157 0.000000 0.000000 0.000000 -4.526595 -0.911990 32.520181 6.557783 -0.958572 -20.860236 2.245389 0.016458 24.984725 -0.520972 2.567630 -27.831714 0.000000 0.000000 0.000000 -13.738634 -14.207469 5.395306 -35.963652 -46.429726 7.222163 6.285962 -50.161341 -0.593410 0.000000 0.000000 0.000000 4.228992 23.164800 9.536676 34.392239 50.117522 9.399180 -12.241750 56.946252 -2.793806 0.000000 0.000000 0.000000 
0.014915 0.943017 -0.059354 -4.967203 9.604379 11.330523 13.566952 -0.598918 -15.259356 -6.648521 0.443326 -3.929261 10.577493 22.067480 20.361107 0.000000 0.000000 0.000000 -0.359573 1.952405 -23.977551 5.139858 -0.685357 3.555712 -2.931572 -10.232728 19.249825 0.000000 0.000000 0.000000 -4.399149 -0.975259 32.658668 6.465998 -0.940873 -20.778845 2.237741 0.048126 24.761075 -0.672733 2.638242 -27.325497 0.000000 0.000000 0.000000 -13.904047 -14.391989 5.465911 -35.624822 -46.671192 7.213721 6.172924 -49.463308 -0.556180 0.000000 0.000000 0.000000 4.349116 23.137103 9.553512 34.392362 50.128069 9.431554 -12.887799 56.044741 -3.103538 0.000000 0.000000 0.000000 
0.015140 0.943179 -0.059950 -4.917413 9.656698 11.261077 13.522571 -0.601740 -15.262973 -6.709761 0.446954 -3.869767 10.529252 22.013370 20.376006 0.000000 0.000000 0.000000 -0.360783 1.936906 -23.764632 5.016628 -0.662292 3.278529 -2.937497 -10.240135 19.335683 0.000000 0.000000 0.000000 -4.310410 -1.015563 32.720853 6.539117 -0.953071 -20.887236 2.214138 0.060330 24.741965 -0.779348 2.689743 -27.060387 0.000000 0.000000 0.000000 -13.859819 -14.371547 5.443047 -35.453124 -46.982290 7.260075 6.532127 -48.644920 -0.718299 0.000000 0.000000 0.000000 4.558507 23.052400 9.571126 34.904529 50.492146 9.775045 -13.720339 55.029333 -3.459529 0.000000 0.000000 0.000000 
0.015532 0.943548 -0.060919 -4.794316 9.701077 11.174134 13.509494 -0.603784 -15.120470 -6.994251 0.452784 -4.058640 10.458445 21.926879 20.520919 0.000000 0.000000 0.000000 -0.568992 1.883891 -23.514995 5.094097 -0.670310 2.944802 -2.931422 -10.240088 19.511916 0.000000 0.000000 0.000000 -4.343790 -1.024357 32.958201 6.644763 -0.960021 -21.143842 2.182869 0.138713 24.781412 -0.936269 2.777441 -26.808208 0.000000 0.000000 0.000000 -13.801816 -14.664541 5.565660 -34.811863 -47.155156 7.091779 6.935479 -47.878744 -0.910636 0.000000 0.000000 0.000000 5.078000 22.889069 9.634954 34.993327 50.780046 9.897973 -14.261345 53.961168 -3.653870 0.000000 0.000000 0.000000 
